<?xml version="1.0" encoding="utf-8"?>
<svg viewBox="0 0 56 37" style="fill-rule:evenodd;clip-rule:evenodd;stroke-linejoin:round;stroke-miterlimit:1.41421;" xmlns="http://www.w3.org/2000/svg">
  <defs>
    <linearGradient id="_Linear1" x1="0" y1="0" x2="1" y2="0" gradientUnits="userSpaceOnUse" gradientTransform="matrix(2.17916e-15,35.5884,-35.5884,2.17916e-15,28.0556,0.61999)">
      <stop offset="0" style="stop-color:#fad956;stop-opacity:1"/>
      <stop offset="1" style="stop-color:#ffa10f;stop-opacity:1"/>
    </linearGradient>
  </defs>
  <rect id="Artboard1" x="0" y="0" width="140.061" height="36.686" style="fill:none;"/>
  <path d="M0.44,16.16c0,-0.92 0.746,-1.658 1.667,-1.658c0.439,0 0.829,0.174 1.128,0.448c-0.008,-0.149 -0.017,-0.29 -0.017,-0.439c0,-3.076 2.487,-5.564 5.564,-5.564c0.796,0 1.55,0.166 2.239,0.473c-0.008,-0.158 -0.017,-0.315 -0.017,-0.464c0,-4.61 3.731,-8.341 8.341,-8.341c4.577,0 8.291,3.69 8.341,8.258c-1.509,1.327 -2.711,3.001 -3.482,4.892c-1.492,-0.929 -3.25,-1.484 -5.132,-1.484c-3.88,0 -7.23,2.206 -8.797,5.539l-5.946,0l-2.222,0c-0.921,-0.018 -1.667,-0.739 -1.667,-1.66Zm43.92,-4.983c-2.065,-2.065 -4.909,-3.341 -8.059,-3.341c-5.746,0 -10.505,4.254 -11.285,9.792c-1.418,-1.89 -3.681,-3.118 -6.227,-3.118c-4.303,0 -7.786,3.491 -7.786,7.786c0,1.252 0.298,2.429 0.821,3.482c-2.703,0.547 -4.71,2.645 -4.71,5.141c0,2.919 2.736,5.282 6.119,5.282c1.492,0 2.861,-0.464 3.922,-1.235l12.512,-12.305c1.385,-1.269 3.225,-2.04 5.248,-2.04c4.229,0 7.67,3.375 7.786,7.578c0,0 0,-0.008 -0.008,-0.008c0.066,1.244 -0.58,2.496 -1.774,3.184c-1.667,0.962 -3.756,0.448 -4.668,-1.136c-0.92,-1.592 -0.315,-3.657 1.352,-4.618c0.39,-0.224 0.796,-0.365 1.211,-0.439c-0.357,-0.075 -0.73,-0.108 -1.111,-0.108c-3.068,0 -5.564,2.487 -5.564,5.564c0,3.076 2.487,5.564 5.564,5.564c0.133,0 0.274,-0.008 0.406,-0.017l-0.008,-0.017l0.158,-0.017l10.92,0l0,0.041c3.341,-0.149 6.5,-3.225 6.5,-6.973c0,-3.839 -3.283,-6.973 -7.122,-6.973c-0.008,0 -0.008,0 -0.017,0c-0.622,1.111 -1.376,1.758 -2.23,2.454c0.895,-1.633 1.41,-3.491 1.41,-5.481c-0.019,-3.141 -1.296,-5.977 -3.36,-8.042Z" style="fill:url(#_Linear1);fill-rule:nonzero;"/>
</svg>